<svg xmlns="http://www.w3.org/2000/svg" width="512" height="512" viewBox="0 0 512 512" version="1.1">
	<path d="M 231.500 10.079 C 222.718 11.266, 214.480 13.585, 210.193 16.077 C 207.357 17.726, 204.884 18, 192.850 18 C 164.731 18, 136.950 27.043, 110.462 44.818 C 78.948 65.966, 57.293 97.955, 55.261 126.359 C 54.769 133.242, 54.279 134.794, 51.319 138.859 C 46.403 145.608, 39.434 160.355, 37.074 169 C 30.689 192.391, 33.034 218.581, 43.497 240.734 C 54.146 263.282, 72.331 282.625, 92.756 293.131 C 97.377 295.509, 103.007 299.559, 106.956 303.349 C 126.296 321.907, 147.253 331.478, 174.094 334.009 C 180.044 334.570, 185.607 335.296, 186.456 335.622 C 188.611 336.449, 188.419 341.434, 185.918 349.529 C 183.438 357.560, 179.580 361.712, 156.853 380.806 C 139.666 395.246, 115.122 419.943, 105.981 431.994 C 99.244 440.876, 91 455.725, 91 458.978 C 91 460.602, 91.539 460.794, 94.750 460.317 C 100.300 459.492, 102.423 457.765, 107.949 449.575 C 119.414 432.585, 137.041 414.230, 167.679 387.380 C 180.427 376.208, 192.174 365.139, 193.783 362.783 C 197.392 357.496, 199.259 351.752, 202.100 337.183 L 204.307 325.867 209.938 331.933 C 214.244 336.572, 216.229 338, 218.371 338 L 221.172 338 217.588 331.591 C 212.027 321.648, 200.816 289.851, 202.335 288.332 C 202.575 288.091, 203.817 289.606, 205.093 291.697 C 208.530 297.326, 217.740 306.723, 224 310.986 C 227.025 313.046, 233.651 316.816, 238.725 319.364 C 243.799 321.911, 248.613 325.009, 249.422 326.248 C 250.231 327.486, 252.243 334.575, 253.893 342 C 257.835 359.739, 262.651 373.544, 270.547 389.730 C 274.096 397.007, 277 403.124, 277 403.324 C 277 403.524, 270.322 403.977, 262.160 404.330 C 253.998 404.683, 243.761 405.669, 239.410 406.521 C 235.060 407.373, 221.825 408.511, 210 409.051 C 181.027 410.373, 168.189 412.145, 171.729 414.333 C 172.227 414.640, 175.969 415.816, 180.047 416.946 C 186.719 418.795, 190.283 419, 215.719 419 C 247.788 419, 247.586 418.963, 261.657 427.490 C 274.161 435.069, 284.545 443.734, 298.652 458.362 C 309.757 469.876, 312.268 472, 314.780 472 C 318.815 472, 320.523 469.874, 318.946 466.814 C 316.350 461.776, 306.202 449.107, 299.048 441.974 C 290.656 433.605, 283.051 427.552, 270.747 419.444 L 262.500 414.010 271.803 414.005 C 276.919 414.002, 284.234 414.712, 288.058 415.581 C 291.882 416.451, 295.510 416.997, 296.120 416.793 C 297.672 416.276, 292.686 410.587, 288.308 407.881 C 285.292 406.018, 283.593 403.342, 277.952 391.576 C 268.522 371.908, 264.763 359.959, 261.499 339.272 L 260.832 335.045 266.541 338.482 C 272.792 342.247, 281.984 345.573, 289 346.609 C 296.606 347.733, 296.681 347.841, 297.440 358.720 C 297.816 364.099, 298.983 374.125, 300.034 381 C 301.085 387.875, 302.070 395.040, 302.222 396.923 C 302.844 404.586, 309 400.063, 309 391.943 L 309 386.887 312.077 388.693 C 313.769 389.687, 317.707 393.189, 320.827 396.476 L 326.500 402.453 322 403.321 C 314.271 404.812, 312 406.008, 312 408.586 C 312 412.623, 315.238 413.500, 330.145 413.500 C 346.007 413.500, 346.478 413.720, 350.066 422.829 C 353.625 431.864, 371.003 465.693, 373.026 467.523 C 375.059 469.364, 380.513 468.810, 381.241 466.689 C 382.215 463.856, 379.390 456.002, 372.800 443.215 C 368.913 435.672, 363.819 424.887, 361.480 419.248 C 359.141 413.610, 356.467 407.835, 355.536 406.415 C 352.971 402.500, 347.914 400.797, 341.131 401.565 L 335.399 402.213 331.219 395.857 C 328.920 392.360, 327.481 389.350, 328.022 389.166 C 328.562 388.982, 331.141 390.066, 333.752 391.576 C 347.372 399.447, 350.829 400.960, 356.567 401.559 C 359.830 401.900, 363.957 402.622, 365.738 403.163 C 368.871 404.115, 375 410.325, 375 412.548 C 375 415.130, 383.038 422.652, 392.786 429.192 C 405.240 437.548, 410.445 442.534, 416.526 451.934 C 419.006 455.767, 421.430 459.148, 421.914 459.447 C 422.399 459.746, 424.234 459.703, 425.993 459.351 C 428.933 458.763, 429.143 458.466, 428.587 455.686 C 427.593 450.713, 421.293 440.431, 415.207 433.848 C 412.068 430.452, 405 424.710, 399.500 421.087 C 391.344 415.715, 389.024 413.618, 386.921 409.717 C 381.212 399.131, 372.939 393.691, 360.097 392.078 C 354.925 391.429, 349.966 389.702, 340.346 385.199 C 333.281 381.893, 325.700 378.666, 323.500 378.029 C 316.738 376.071, 312.150 373.826, 311.434 372.125 C 310.561 370.052, 309.534 339, 310.338 339 C 310.669 339, 315.789 339.721, 321.717 340.601 C 338.471 343.090, 350.012 341.106, 357.862 334.386 C 360.937 331.754, 363.388 327.957, 367.360 319.669 C 370.304 313.526, 375.213 304.628, 378.269 299.895 C 385.873 288.117, 389.863 280.029, 393.013 270 C 395.050 263.516, 396.255 261.216, 398.092 260.301 C 399.416 259.642, 404.325 257.312, 409 255.123 C 437.383 241.838, 461.216 217.600, 471.788 191.271 C 477.340 177.445, 479.300 165.848, 478.680 150.500 C 477.642 124.791, 468.433 101.825, 451.982 83.917 L 447.005 78.500 447.583 84 C 447.901 87.025, 448.288 89.950, 448.442 90.500 C 448.597 91.050, 448.383 92.400, 447.966 93.500 C 447.350 95.130, 446.527 94.021, 443.518 87.503 C 437.897 75.330, 431.840 66.979, 421.724 57.456 C 386.547 24.342, 335.183 8.319, 300.462 19.629 L 295.423 21.270 286.070 17.528 C 269.661 10.963, 247.423 7.928, 231.500 10.079 M 209.500 28.306 C 219.508 35.626, 224.140 42.962, 220.456 45.656 C 217.737 47.644, 216.002 47.293, 215.985 44.750 C 215.954 40.304, 214.547 39.507, 206.510 39.387 C 199.978 39.290, 199.204 39.455, 200.832 40.595 C 203.443 42.424, 206.684 50.419, 207.482 57 C 209.881 76.774, 191.813 106.150, 166.806 123.132 C 139.845 141.441, 102.383 146.769, 92.614 133.685 C 85.173 123.719, 100.042 96.078, 120.963 80.987 C 130.143 74.366, 130.853 73.732, 127 75.599 C 119.239 79.359, 108.036 87.772, 99.890 95.958 C 92.757 103.127, 90.450 106.283, 86.440 114.360 C 82.021 123.263, 81.595 124.748, 81.530 131.472 C 81.450 139.848, 80.751 141.026, 72.855 146.093 C 67.725 149.385, 66.921 151.537, 69.064 156.241 C 70.643 159.707, 78.454 164.541, 87.500 167.651 C 94.799 170.160, 96.814 170.406, 110.500 170.451 C 151.160 170.584, 189.351 154.633, 218.656 125.276 C 229.838 114.074, 238.339 103.001, 237.822 100.312 C 237.573 99.023, 236.617 99.702, 233.995 103.031 C 206.528 137.907, 171.589 158.614, 132.953 162.913 C 116.692 164.722, 109.029 161.413, 124.128 159.102 C 154.929 154.387, 188.395 133.222, 209.610 105.041 C 216.729 95.584, 224.637 80.972, 228.034 71 C 232.352 58.319, 230.626 42.855, 223.994 34.809 C 220.827 30.967, 211.999 25.962, 208.554 26.056 C 206.752 26.104, 206.868 26.380, 209.500 28.306 M 296.204 37.128 C 292.390 39.016, 287 44.453, 287 46.412 C 287 46.811, 288.303 46.209, 289.895 45.075 C 297.658 39.547, 309.833 40.252, 321.198 46.888 C 328.687 51.261, 344.887 66.535, 353.643 77.478 C 357.165 81.880, 362.082 89.424, 364.570 94.241 C 367.058 99.058, 369.364 103, 369.694 103 C 370.024 103, 370.002 99.552, 369.646 95.338 C 368.589 82.836, 361.923 71.075, 348.358 57.776 C 328.996 38.794, 308.906 30.840, 296.204 37.128 M 256.276 41.092 C 250.527 43.938, 244.582 49.918, 241.546 55.909 C 239.403 60.137, 231.743 87.939, 232.487 88.786 C 233.312 89.725, 242.698 73.889, 246.463 65.206 C 248.918 59.544, 251.852 53.613, 252.981 52.026 C 259.312 43.136, 273.910 40.987, 281.404 47.843 C 283.614 49.865, 284.152 50.062, 283.654 48.668 C 283.294 47.661, 283 46.413, 283 45.896 C 283 45.379, 280.887 43.616, 278.304 41.978 C 274.325 39.454, 272.609 39, 267.054 39.001 C 262.420 39.001, 259.263 39.614, 256.276 41.092 M 355 42.486 C 355 42.753, 357.778 44.374, 361.174 46.088 C 385.288 58.260, 403.306 74.124, 410.760 89.745 C 413.686 95.876, 414.235 98.141, 414.331 104.472 C 414.401 109.069, 413.986 112.414, 413.255 113.145 C 412.336 114.064, 411.977 114.013, 411.675 112.917 C 407.946 99.371, 401.708 89.228, 392.438 81.638 C 386.354 76.656, 370.450 68.216, 369.305 69.362 C 368.954 69.713, 368.854 70.144, 369.083 70.321 C 386.927 84.047, 394.569 91.273, 400.881 100.386 C 406.318 108.235, 408.959 115.661, 409.691 125.153 C 410.024 129.469, 410.671 133, 411.128 133 C 412.230 133, 415.779 125.955, 418.156 119.048 C 419.207 115.997, 420.349 110.164, 420.694 106.086 L 421.321 98.672 423.570 101.287 C 424.807 102.725, 426.868 106.511, 428.150 109.701 C 430.181 114.756, 430.477 117.169, 430.451 128.500 C 430.431 137.522, 429.911 143.323, 428.752 147.457 C 427.833 150.734, 427.249 153.582, 427.453 153.786 C 427.658 153.991, 429.712 150.350, 432.018 145.695 C 435.228 139.217, 436.336 135.681, 436.743 130.616 C 437.345 123.113, 438.852 122.060, 441.376 127.380 C 445.926 136.968, 447.907 157.049, 445.827 172.500 L 445.154 177.500 447.073 173.345 C 450.690 165.517, 452.427 156.867, 452.364 147 C 452.261 130.714, 447.657 118.030, 435.882 101.591 C 421.863 82.020, 388.526 55.576, 365.046 45.400 C 357.560 42.156, 355 41.414, 355 42.486 M 314.500 55.605 C 323.743 61.195, 331.939 68.098, 342.418 79.119 C 347.688 84.662, 352 88.914, 352 88.570 C 352 86.342, 345.080 74.930, 341.239 70.825 C 333.165 62.192, 320.265 54.164, 312 52.628 C 308.787 52.030, 308.991 52.274, 314.500 55.605 M 307.616 86.267 C 307.446 86.945, 306.365 91.407, 305.215 96.183 C 301.882 110.017, 293.912 126.576, 281.637 145.170 L 279.875 147.840 285.687 148.497 C 293.748 149.407, 301.326 151.636, 308.448 155.194 C 316.160 159.046, 319 161.679, 319 164.974 C 319 171.208, 314.024 171.554, 305.377 165.920 C 297.401 160.724, 286.689 156.987, 279.276 156.815 L 273.500 156.681 261.547 168.091 C 254.972 174.366, 240.080 188.725, 228.454 200 C 188.364 238.877, 186.060 240.928, 178.500 244.477 C 168.665 249.094, 167.466 250.134, 168.898 252.810 C 170.653 256.089, 177.064 260, 180.685 260 C 185.693 260, 188.730 258.095, 192.102 252.840 C 193.811 250.178, 195.533 248, 195.930 248 C 197.877 248, 201.391 253.701, 206.829 265.683 C 213.758 280.951, 217.029 286.042, 223.844 292.170 C 233.124 300.513, 248.803 307.261, 291.500 321.287 C 319.860 330.604, 328.983 332.598, 338.388 331.538 C 349.740 330.259, 353.963 326.711, 358.275 314.825 C 359.608 311.153, 363.424 303.941, 366.756 298.797 C 381.758 275.639, 387.031 261.247, 387.198 243 C 387.287 233.374, 385.515 218, 384.317 218 C 384.041 218, 382.671 218.900, 381.273 220 C 378.661 222.054, 372.567 222.726, 371.544 221.072 C 371.229 220.562, 371.812 219.877, 372.839 219.551 C 375.978 218.555, 378.367 212.896, 377.757 207.899 C 377.462 205.480, 376.874 202.600, 376.450 201.500 C 375.767 199.727, 375.982 199.775, 378.340 201.924 C 381.145 204.481, 382.123 203.266, 379.429 200.571 C 378.353 199.496, 375.985 199, 371.929 199 C 366.442 199, 366 199.168, 366 201.257 C 366 204.707, 367.813 210.264, 369.232 211.164 C 369.929 211.607, 371.738 211.976, 373.250 211.985 C 376.770 212.004, 376.927 214.621, 373.502 216.181 C 371.498 217.094, 369.472 216.903, 363.252 215.212 C 355.554 213.120, 355.481 213.118, 352.790 215.052 C 347.197 219.073, 346.051 215.606, 351.213 210.280 C 354.115 207.286, 354.320 206.686, 353.334 204.074 C 351.871 200.199, 352.695 196.578, 355.728 193.544 C 359.581 189.692, 369.755 185, 374.255 185 C 378.033 185, 384 187.581, 384 189.216 C 384 189.647, 384.450 190, 385 190 C 386.344 190, 386.313 168.453, 384.965 165.934 C 383.058 162.371, 376.350 163.355, 366.004 168.715 C 355.900 173.949, 353.755 173.857, 353.188 168.166 C 352.773 164.002, 355.908 160.937, 363.563 158.025 C 372.129 154.765, 376.731 154.468, 381.351 156.878 L 385.201 158.887 384.524 155.194 C 383.301 148.519, 377.839 133.205, 375.965 131.192 C 374.954 130.108, 367.911 125.031, 360.314 119.911 C 352.716 114.791, 341.100 106.784, 334.500 102.117 C 312.123 86.296, 308.189 83.977, 307.616 86.267 M 375 90.598 C 375 90.926, 377.494 94.734, 380.541 99.059 C 383.589 103.384, 387.649 110.202, 389.564 114.211 L 393.044 121.500 392.484 116 C 391.741 108.690, 390.284 104.339, 386.942 99.446 C 383.587 94.533, 375 88.171, 375 90.598 M 55.987 170.466 C 63.998 191.536, 86.702 204, 117.072 204 C 120.883 204, 124 203.612, 124 203.138 C 124 202.664, 121.089 201.978, 117.531 201.613 C 94.027 199.205, 71.383 188.222, 60.179 173.794 C 57.704 170.608, 55.537 168, 55.364 168 C 55.191 168, 55.471 169.110, 55.987 170.466 M 270.773 182.555 C 264.908 183.977, 256.678 187.720, 251.709 191.226 C 250.173 192.309, 247.779 193.500, 246.387 193.872 L 243.857 194.548 245.928 197.182 C 247.068 198.630, 248 200.082, 248 200.408 C 248 201.357, 243.370 201.091, 240.426 199.972 C 238.939 199.407, 237.496 199.171, 237.219 199.448 C 236.461 200.205, 239.123 203.094, 242.444 205.119 C 244.879 206.604, 245.099 207.025, 243.717 207.555 C 242.798 207.908, 239.786 208.040, 237.023 207.848 C 234.259 207.657, 231.999 207.776, 231.999 208.113 C 232.001 209.509, 243.882 213.920, 248.656 214.296 C 251.871 214.550, 254.805 215.488, 256.464 216.793 C 260.098 219.652, 269.061 221.353, 276.432 220.584 C 285.026 219.686, 298 216.863, 298 215.891 C 298 213.768, 293.447 212.817, 286.436 213.474 L 279.133 214.158 277.616 211.224 C 275.524 207.178, 275.199 200.119, 277.050 198.948 C 278.680 197.916, 289.977 197.670, 292.432 198.612 C 293.310 198.949, 295.611 202.056, 297.547 205.517 C 301.503 212.591, 303.319 214.475, 305.410 213.673 C 307.233 212.973, 306.659 210.549, 302.507 201.421 C 298.763 193.187, 295.542 190.449, 286.583 187.884 L 280.500 186.142 285.365 186.071 C 292.104 185.973, 298.811 189.744, 302.599 195.763 L 305.500 200.372 305.809 197.249 C 306.996 185.234, 289.681 177.972, 270.773 182.555 M 392.747 192.286 C 390.936 196.210, 390.531 197.804, 391.563 196.947 C 393.817 195.077, 396.174 190.164, 395.811 188.094 C 395.620 187.006, 394.438 188.623, 392.747 192.286 M 374.484 190.085 C 372.755 190.760, 372.843 190.868, 375.168 190.930 C 376.636 190.968, 378.622 191.301, 379.582 191.670 C 380.680 192.091, 381.087 191.950, 380.680 191.291 C 379.739 189.768, 376.773 189.191, 374.484 190.085 M 260.250 203.662 C 258.597 204.329, 258.656 208.147, 260.355 210.471 C 263.110 214.239, 267.205 209.941, 265.153 205.436 C 264.075 203.071, 262.831 202.621, 260.250 203.662 M 389.114 204.154 C 386.918 204.785, 386.070 205.470, 386.701 206.101 C 387.868 207.268, 393 205.577, 393 204.025 C 393 203.461, 392.887 203.041, 392.750 203.090 C 392.613 203.140, 390.976 203.619, 389.114 204.154 M 62.551 212 C 64.573 219.698, 74.366 230.857, 84.373 236.865 C 89.650 240.034, 102.842 245.041, 109.500 246.401 C 111.150 246.739, 107.550 244.607, 101.500 241.665 C 88.952 235.562, 76.231 226.503, 70.204 219.375 C 67.936 216.694, 65.139 213.375, 63.987 212 L 61.894 209.500 62.551 212 M 317.898 231.287 C 314.040 233.883, 311.577 239.798, 312.536 244.165 C 313.821 250.015, 322.869 254.272, 326 250.500 C 326.685 249.675, 326.805 249, 326.268 249 C 325.731 249, 324.101 247.896, 322.646 246.548 C 320.658 244.705, 320 243.128, 320 240.203 C 320 235.435, 321.923 233.521, 328 232.243 L 332.500 231.296 329.685 230.148 C 325.400 228.401, 321.648 228.763, 317.898 231.287 M 354.725 237.905 C 355.356 244.867, 354.097 247.644, 349.420 249.598 C 347.539 250.384, 346 251.246, 346 251.513 C 346 251.781, 348.045 252, 350.545 252 C 358.863 252, 362.442 244.948, 358.423 236.478 C 355.685 230.708, 354.127 231.309, 354.725 237.905 M 329.248 240.664 C 326.692 241.204, 324.575 244.451, 325.392 246.578 C 325.758 247.533, 327.509 248, 330.725 248 C 333.359 248, 336.860 248.381, 338.507 248.846 C 340.153 249.311, 342.063 249.499, 342.750 249.263 C 344.834 248.547, 344.179 244.163, 341.750 242.574 C 339.244 240.933, 332.703 239.934, 329.248 240.664 M 176.340 249.556 C 176.012 250.412, 176.153 252.550, 176.653 254.306 C 177.889 258.643, 182.404 259.401, 184.152 255.566 C 185.939 251.644, 183.934 248, 179.990 248 C 178.150 248, 176.700 248.618, 176.340 249.556 M 177.667 249.667 C 176.488 250.845, 176.954 253.811, 178.571 255.429 C 180.604 257.461, 181.628 257.414, 182.452 255.250 C 182.967 253.897, 182.848 253.769, 181.924 254.686 C 179.978 256.617, 177.589 253.637, 178.987 251.024 C 180.007 249.118, 179.123 248.210, 177.667 249.667 M 336.500 264.175 C 332.595 265.658, 326.879 269.250, 319.824 274.655 C 316.702 277.047, 312.427 279.565, 310.324 280.252 C 307.389 281.210, 306.431 282.088, 306.205 284.029 C 305.948 286.227, 307.286 287.506, 316.440 293.818 C 330.844 303.749, 335.896 305.979, 344 305.985 C 356.101 305.992, 362.014 303.023, 364.160 295.862 C 365.026 292.971, 364.991 291.394, 364.011 289.026 C 362.903 286.353, 362.968 285.693, 364.503 283.997 C 366.697 281.572, 366.064 274.939, 363.271 271.087 C 358.957 265.136, 344.082 261.296, 336.500 264.175 M 339.370 271.440 C 333.606 273.949, 334.871 274.646, 345.050 274.572 C 350.522 274.533, 354.999 274.188, 354.999 273.807 C 355 273.425, 354 272.413, 352.777 271.557 C 350.064 269.656, 343.599 269.600, 339.370 271.440 M 326.500 285.880 L 321.500 286.500 326.500 288.653 C 334.855 292.250, 342.055 294.001, 348.432 293.985 C 355.848 293.966, 357.492 293.097, 356.627 289.651 C 356.143 287.720, 355.185 286.964, 352.742 286.587 C 346.757 285.664, 331.547 285.254, 326.500 285.880 M 173.555 419.869 C 170.808 420.458, 171.481 421.001, 183.555 427.931 C 199.742 437.221, 207.034 444.262, 215.503 458.778 C 220.796 467.850, 221.793 469.023, 224 468.778 C 225.876 468.569, 226.577 467.835, 226.808 465.834 C 227.129 463.063, 221.405 448.092, 217.695 442 C 214.467 436.698, 207.354 429.433, 202.152 426.122 C 194.807 421.449, 180.637 418.350, 173.555 419.869" stroke="none" fill="black" fill-rule="evenodd"/>
</svg>