<svg xmlns="http://www.w3.org/2000/svg" xmlns:v="https://svgstorm.com"
viewBox = "0 0 1000 1000"
width="1000"
height="1000">
<g fill="None" fill-opacity="0.0" stroke="#445E73" stroke-opacity="1.00" stroke-width="0.3"><path d="
M 0.00 1000.00 
L 1000.00 1000.00
L 1000.00 0.00
L 0.00 0.00
L 0.00 1000.00
M 350.00 316.00 
C 385.14 321.71 374.32 380.28 338.78 372.22 C 303.24 364.16 313.97 310.15 350.00 316.00
M 675.00 468.00 
C 658.50 467.33 635.89 468.89 620.00 468.00 C 604.11 467.11 600.63 451.05 586.75 445.25 C 572.88 439.44 559.39 433.10 543.93 432.07 C 528.46 431.05 508.75 433.53 495.32 439.32 C 481.90 445.11 472.24 452.04 461.75 461.75 C 451.27 471.46 444.53 482.53 439.00 495.00
C 431.25 491.90 426.29 488.20 417.98 486.02 C 409.66 483.85 397.63 485.60 389.33 486.33 C 381.03 487.06 389.50 474.43 391.77 468.77 C 394.04 463.11 399.10 454.54 402.92 448.92 C 406.74 443.30 411.94 437.08 416.75 431.75 C 421.57 426.43 426.65 421.93 432.25 417.25 C 437.85 412.56 443.74 408.14 450.08 404.08 C 456.42 400.02 462.74 397.00 470.03 394.03 C 477.31 391.05 484.92 387.89 493.02 386.02 C 501.13 384.15 510.26 381.64 519.01 381.01 C 527.76 380.37 538.23 380.37 547.00 381.00 C 555.77 381.63 565.57 383.34 573.67 385.33 C 581.77 387.31 588.71 390.04 596.02 392.98 C 603.34 395.91 609.67 400.07 616.23 403.77 C 622.79 407.47 628.51 412.11 634.25 416.75 C 639.99 421.39 644.73 425.75 649.75 431.25 C 654.77 436.75 659.69 442.07 663.75 448.25 C 667.82 454.42 672.61 460.96 675.00 468.00
M 318.00 568.00 
C 318.03 558.20 317.96 548.85 318.00 539.00 C 318.04 529.15 317.93 518.89 318.00 509.00 C 318.07 499.11 317.85 488.86 318.00 479.00 C 318.15 469.14 317.67 458.74 318.00 449.00 C 318.33 439.26 317.27 428.44 318.00 419.00 C 318.73 409.56 313.55 396.44 325.00 396.00 C 336.45 395.56 343.25 397.57 355.00 396.00 C 366.75 394.43 371.69 398.34 370.00 410.00 C 368.31 421.66 370.73 429.21 370.00 440.00 C 369.27 450.79 370.26 459.55 370.00 470.00 C 369.74 480.45 369.96 489.58 370.00 500.00 C 370.04 510.42 369.64 519.34 370.00 530.00 C 370.36 540.66 369.07 548.66 370.00 560.00 C 370.93 571.34 357.33 567.85 348.00 568.00 C 338.67 568.15 327.50 567.89 318.00 568.00
M 676.00 499.00 
C 655.97 491.20 636.91 508.71 637.34 528.68 C 637.76 548.64 658.52 565.00 678.00 557.00
C 679.29 575.26 655.55 569.62 644.31 562.70 C 633.06 555.77 626.38 542.22 626.00 529.00 C 625.62 515.78 631.54 500.75 642.75 493.75 C 653.95 486.74 676.80 481.11 676.00 499.00
M 432.00 509.00 
C 427.33 509.00 422.67 509.00 418.00 509.00
C 413.05 489.65 387.00 506.78 397.75 517.25 C 408.51 527.71 423.66 523.37 430.77 537.23 C 437.88 551.09 426.50 566.04 412.93 567.93 C 399.36 569.81 384.03 560.04 381.00 547.00
C 385.67 547.00 390.33 547.00 395.00 547.00
C 395.09 564.52 427.67 557.86 421.07 543.93 C 414.48 529.99 396.92 535.26 387.75 523.25 C 378.58 511.24 383.78 493.30 398.68 489.68 C 413.57 486.06 428.84 494.12 432.00 509.00
M 507.00 504.00 
C 504.04 494.73 512.42 495.49 519.00 496.00
C 519.00 519.67 519.00 543.33 519.00 567.00
C 511.98 567.05 503.21 569.04 504.00 560.00
C 480.96 580.98 444.39 560.01 446.00 530.00 C 447.61 499.99 483.94 483.76 507.00 504.00
M 589.00 501.00 
C 595.25 492.38 609.96 495.90 608.00 507.00 C 606.04 518.10 608.78 530.76 608.00 541.00 C 607.22 551.24 611.59 568.37 599.00 566.00 C 586.41 563.63 582.13 566.44 571.00 568.00 C 559.87 569.56 554.68 564.89 547.25 558.75 C 539.82 552.61 537.06 544.91 536.00 536.00 C 534.94 527.09 537.22 517.87 542.30 510.30 C 547.39 502.73 553.39 498.29 562.07 496.07 C 570.76 493.86 581.79 495.18 589.00 501.00
M 676.00 588.00 
C 656.49 646.52 594.25 683.28 534.00 683.00 C 473.75 682.72 413.26 646.97 390.00 590.00
C 409.50 587.68 430.08 589.66 450.00 589.00
C 486.96 644.64 581.25 644.85 617.00 588.00
C 636.67 588.00 656.33 588.00 676.00 588.00 Z"/>
</g>
<g fill="None" fill-opacity="0.0" stroke="#ECF5F5" stroke-opacity="1.00" stroke-width="0.3"><path d="
M 350.00 316.00 
C 313.97 310.15 303.24 364.16 338.78 372.22 C 374.32 380.28 385.14 321.71 350.00 316.00 Z"/>
</g>
<g fill="None" fill-opacity="0.0" stroke="#ECF5F5" stroke-opacity="1.00" stroke-width="0.3"><path d="
M 675.00 468.00 
C 672.61 460.96 667.82 454.42 663.75 448.25 C 659.69 442.07 654.77 436.75 649.75 431.25 C 644.73 425.75 639.99 421.39 634.25 416.75 C 628.51 412.11 622.79 407.47 616.23 403.77 C 609.67 400.07 603.34 395.91 596.02 392.98 C 588.71 390.04 581.77 387.31 573.67 385.33 C 565.57 383.34 555.77 381.63 547.00 381.00 C 538.23 380.37 527.76 380.37 519.01 381.01 C 510.26 381.64 501.13 384.15 493.02 386.02 C 484.92 387.89 477.31 391.05 470.03 394.03 C 462.74 397.00 456.42 400.02 450.08 404.08 C 443.74 408.14 437.85 412.56 432.25 417.25 C 426.65 421.93 421.57 426.43 416.75 431.75 C 411.94 437.08 406.74 443.30 402.92 448.92 C 399.10 454.54 394.04 463.11 391.77 468.77 C 389.50 474.43 381.03 487.06 389.33 486.33 C 397.63 485.60 409.66 483.85 417.98 486.02 C 426.29 488.20 431.25 491.90 439.00 495.00
C 444.53 482.53 451.27 471.46 461.75 461.75 C 472.24 452.04 481.90 445.11 495.32 439.32 C 508.75 433.53 528.46 431.05 543.93 432.07 C 559.39 433.10 572.88 439.44 586.75 445.25 C 600.63 451.05 604.11 467.11 620.00 468.00 C 635.89 468.89 658.50 467.33 675.00 468.00 Z"/>
</g>
<g fill="None" fill-opacity="0.0" stroke="#ECF5F5" stroke-opacity="1.00" stroke-width="0.3"><path d="
M 318.00 568.00 
C 327.50 567.89 338.67 568.15 348.00 568.00 C 357.33 567.85 370.93 571.34 370.00 560.00 C 369.07 548.66 370.36 540.66 370.00 530.00 C 369.64 519.34 370.04 510.42 370.00 500.00 C 369.96 489.58 369.74 480.45 370.00 470.00 C 370.26 459.55 369.27 450.79 370.00 440.00 C 370.73 429.21 368.31 421.66 370.00 410.00 C 371.69 398.34 366.75 394.43 355.00 396.00 C 343.25 397.57 336.45 395.56 325.00 396.00 C 313.55 396.44 318.73 409.56 318.00 419.00 C 317.27 428.44 318.33 439.26 318.00 449.00 C 317.67 458.74 318.15 469.14 318.00 479.00 C 317.85 488.86 318.07 499.11 318.00 509.00 C 317.93 518.89 318.04 529.15 318.00 539.00 C 317.96 548.85 318.03 558.20 318.00 568.00 Z"/>
</g>
<g fill="None" fill-opacity="0.0" stroke="#ECF5F5" stroke-opacity="1.00" stroke-width="0.3"><path d="
M 676.00 499.00 
C 676.80 481.11 653.95 486.74 642.75 493.75 C 631.54 500.75 625.62 515.78 626.00 529.00 C 626.38 542.22 633.06 555.77 644.31 562.70 C 655.55 569.62 679.29 575.26 678.00 557.00
C 658.52 565.00 637.76 548.64 637.34 528.68 C 636.91 508.71 655.97 491.20 676.00 499.00 Z"/>
</g>
<g fill="None" fill-opacity="0.0" stroke="#ECF5F5" stroke-opacity="1.00" stroke-width="0.3"><path d="
M 432.00 509.00 
C 428.84 494.12 413.57 486.06 398.68 489.68 C 383.78 493.30 378.58 511.24 387.75 523.25 C 396.92 535.26 414.48 529.99 421.07 543.93 C 427.67 557.86 395.09 564.52 395.00 547.00
C 390.33 547.00 385.67 547.00 381.00 547.00
C 384.03 560.04 399.36 569.81 412.93 567.93 C 426.50 566.04 437.88 551.09 430.77 537.23 C 423.66 523.37 408.51 527.71 397.75 517.25 C 387.00 506.78 413.05 489.65 418.00 509.00
C 422.67 509.00 427.33 509.00 432.00 509.00 Z"/>
</g>
<g fill="None" fill-opacity="0.0" stroke="#ECF5F5" stroke-opacity="1.00" stroke-width="0.3"><path d="
M 507.00 504.00 
C 483.94 483.76 447.61 499.99 446.00 530.00 C 444.39 560.01 480.96 580.98 504.00 560.00
C 503.21 569.04 511.98 567.05 519.00 567.00
C 519.00 543.33 519.00 519.67 519.00 496.00
C 512.42 495.49 504.04 494.73 507.00 504.00
M 490.00 506.00 
C 520.10 512.67 507.75 565.98 477.00 557.00 C 446.25 548.02 456.71 498.62 490.00 506.00 Z"/>
</g>
<g fill="None" fill-opacity="0.0" stroke="#ECF5F5" stroke-opacity="1.00" stroke-width="0.3"><path d="
M 589.00 501.00 
C 581.79 495.18 570.76 493.86 562.07 496.07 C 553.39 498.29 547.39 502.73 542.30 510.30 C 537.22 517.87 534.94 527.09 536.00 536.00 C 537.06 544.91 539.82 552.61 547.25 558.75 C 554.68 564.89 559.87 569.56 571.00 568.00 C 582.13 566.44 586.41 563.63 599.00 566.00 C 611.59 568.37 607.22 551.24 608.00 541.00 C 608.78 530.76 606.04 518.10 608.00 507.00 C 609.96 495.90 595.25 492.38 589.00 501.00
M 578.00 506.00 
C 608.71 512.36 596.36 565.47 565.33 556.67 C 534.30 547.87 546.36 499.45 578.00 506.00 Z"/>
</g>
<g fill="None" fill-opacity="0.0" stroke="#445E73" stroke-opacity="1.00" stroke-width="0.3"><path d="
M 490.00 506.00 
C 456.71 498.62 446.25 548.02 477.00 557.00 C 507.75 565.98 520.10 512.67 490.00 506.00 Z"/>
</g>
<g fill="None" fill-opacity="0.0" stroke="#445E73" stroke-opacity="1.00" stroke-width="0.3"><path d="
M 578.00 506.00 
C 546.36 499.45 534.30 547.87 565.33 556.67 C 596.36 565.47 608.71 512.36 578.00 506.00 Z"/>
</g>
<g fill="None" fill-opacity="0.0" stroke="#ECF5F5" stroke-opacity="1.00" stroke-width="0.3"><path d="
M 676.00 588.00 
C 656.33 588.00 636.67 588.00 617.00 588.00
C 581.25 644.85 486.96 644.64 450.00 589.00
C 430.08 589.66 409.50 587.68 390.00 590.00
C 413.26 646.97 473.75 682.72 534.00 683.00 C 594.25 683.28 656.49 646.52 676.00 588.00 Z"/>
</g>
<g fill="#445E73" fill-opacity="1.00" stroke="None">
<path d="
M 0.00 1000.00 
L 1000.00 1000.00
L 1000.00 0.00
L 0.00 0.00
L 0.00 1000.00
M 350.00 316.00 
C 385.14 321.71 374.32 380.28 338.78 372.22 C 303.24 364.16 313.97 310.15 350.00 316.00
M 675.00 468.00 
C 658.50 467.33 635.89 468.89 620.00 468.00 C 604.11 467.11 600.63 451.05 586.75 445.25 C 572.88 439.44 559.39 433.10 543.93 432.07 C 528.46 431.05 508.75 433.53 495.32 439.32 C 481.90 445.11 472.24 452.04 461.75 461.75 C 451.27 471.46 444.53 482.53 439.00 495.00
C 431.25 491.90 426.29 488.20 417.98 486.02 C 409.66 483.85 397.63 485.60 389.33 486.33 C 381.03 487.06 389.50 474.43 391.77 468.77 C 394.04 463.11 399.10 454.54 402.92 448.92 C 406.74 443.30 411.94 437.08 416.75 431.75 C 421.57 426.43 426.65 421.93 432.25 417.25 C 437.85 412.56 443.74 408.14 450.08 404.08 C 456.42 400.02 462.74 397.00 470.03 394.03 C 477.31 391.05 484.92 387.89 493.02 386.02 C 501.13 384.15 510.26 381.64 519.01 381.01 C 527.76 380.37 538.23 380.37 547.00 381.00 C 555.77 381.63 565.57 383.34 573.67 385.33 C 581.77 387.31 588.71 390.04 596.02 392.98 C 603.34 395.91 609.67 400.07 616.23 403.77 C 622.79 407.47 628.51 412.11 634.25 416.75 C 639.99 421.39 644.73 425.75 649.75 431.25 C 654.77 436.75 659.69 442.07 663.75 448.25 C 667.82 454.42 672.61 460.96 675.00 468.00
M 318.00 568.00 
C 318.03 558.20 317.96 548.85 318.00 539.00 C 318.04 529.15 317.93 518.89 318.00 509.00 C 318.07 499.11 317.85 488.86 318.00 479.00 C 318.15 469.14 317.67 458.74 318.00 449.00 C 318.33 439.26 317.27 428.44 318.00 419.00 C 318.73 409.56 313.55 396.44 325.00 396.00 C 336.45 395.56 343.25 397.57 355.00 396.00 C 366.75 394.43 371.69 398.34 370.00 410.00 C 368.31 421.66 370.73 429.21 370.00 440.00 C 369.27 450.79 370.26 459.55 370.00 470.00 C 369.74 480.45 369.96 489.58 370.00 500.00 C 370.04 510.42 369.64 519.34 370.00 530.00 C 370.36 540.66 369.07 548.66 370.00 560.00 C 370.93 571.34 357.33 567.85 348.00 568.00 C 338.67 568.15 327.50 567.89 318.00 568.00
M 676.00 499.00 
C 655.97 491.20 636.91 508.71 637.34 528.68 C 637.76 548.64 658.52 565.00 678.00 557.00
C 679.29 575.26 655.55 569.62 644.31 562.70 C 633.06 555.77 626.38 542.22 626.00 529.00 C 625.62 515.78 631.54 500.75 642.75 493.75 C 653.95 486.74 676.80 481.11 676.00 499.00
M 432.00 509.00 
C 427.33 509.00 422.67 509.00 418.00 509.00
C 413.05 489.65 387.00 506.78 397.75 517.25 C 408.51 527.71 423.66 523.37 430.77 537.23 C 437.88 551.09 426.50 566.04 412.93 567.93 C 399.36 569.81 384.03 560.04 381.00 547.00
C 385.67 547.00 390.33 547.00 395.00 547.00
C 395.09 564.52 427.67 557.86 421.07 543.93 C 414.48 529.99 396.92 535.26 387.75 523.25 C 378.58 511.24 383.78 493.30 398.68 489.68 C 413.57 486.06 428.84 494.12 432.00 509.00
M 507.00 504.00 
C 504.04 494.73 512.42 495.49 519.00 496.00
C 519.00 519.67 519.00 543.33 519.00 567.00
C 511.98 567.05 503.21 569.04 504.00 560.00
C 480.96 580.98 444.39 560.01 446.00 530.00 C 447.61 499.99 483.94 483.76 507.00 504.00
M 589.00 501.00 
C 595.25 492.38 609.96 495.90 608.00 507.00 C 606.04 518.10 608.78 530.76 608.00 541.00 C 607.22 551.24 611.59 568.37 599.00 566.00 C 586.41 563.63 582.13 566.44 571.00 568.00 C 559.87 569.56 554.68 564.89 547.25 558.75 C 539.82 552.61 537.06 544.91 536.00 536.00 C 534.94 527.09 537.22 517.87 542.30 510.30 C 547.39 502.73 553.39 498.29 562.07 496.07 C 570.76 493.86 581.79 495.18 589.00 501.00
M 676.00 588.00 
C 656.49 646.52 594.25 683.28 534.00 683.00 C 473.75 682.72 413.26 646.97 390.00 590.00
C 409.50 587.68 430.08 589.66 450.00 589.00
C 486.96 644.64 581.25 644.85 617.00 588.00
C 636.67 588.00 656.33 588.00 676.00 588.00 Z"/>
</g>
<g fill="#ECF5F5" fill-opacity="1.00" stroke="None">
<path d="
M 350.00 316.00 
C 313.97 310.15 303.24 364.16 338.78 372.22 C 374.32 380.28 385.14 321.71 350.00 316.00 Z"/>
</g>
<g fill="#ECF5F5" fill-opacity="1.00" stroke="None">
<path d="
M 675.00 468.00 
C 672.61 460.96 667.82 454.42 663.75 448.25 C 659.69 442.07 654.77 436.75 649.75 431.25 C 644.73 425.75 639.99 421.39 634.25 416.75 C 628.51 412.11 622.79 407.47 616.23 403.77 C 609.67 400.07 603.34 395.91 596.02 392.98 C 588.71 390.04 581.77 387.31 573.67 385.33 C 565.57 383.34 555.77 381.63 547.00 381.00 C 538.23 380.37 527.76 380.37 519.01 381.01 C 510.26 381.64 501.13 384.15 493.02 386.02 C 484.92 387.89 477.31 391.05 470.03 394.03 C 462.74 397.00 456.42 400.02 450.08 404.08 C 443.74 408.14 437.85 412.56 432.25 417.25 C 426.65 421.93 421.57 426.43 416.75 431.75 C 411.94 437.08 406.74 443.30 402.92 448.92 C 399.10 454.54 394.04 463.11 391.77 468.77 C 389.50 474.43 381.03 487.06 389.33 486.33 C 397.63 485.60 409.66 483.85 417.98 486.02 C 426.29 488.20 431.25 491.90 439.00 495.00
C 444.53 482.53 451.27 471.46 461.75 461.75 C 472.24 452.04 481.90 445.11 495.32 439.32 C 508.75 433.53 528.46 431.05 543.93 432.07 C 559.39 433.10 572.88 439.44 586.75 445.25 C 600.63 451.05 604.11 467.11 620.00 468.00 C 635.89 468.89 658.50 467.33 675.00 468.00 Z"/>
</g>
<g fill="#ECF5F5" fill-opacity="1.00" stroke="None">
<path d="
M 318.00 568.00 
C 327.50 567.89 338.67 568.15 348.00 568.00 C 357.33 567.85 370.93 571.34 370.00 560.00 C 369.07 548.66 370.36 540.66 370.00 530.00 C 369.64 519.34 370.04 510.42 370.00 500.00 C 369.96 489.58 369.74 480.45 370.00 470.00 C 370.26 459.55 369.27 450.79 370.00 440.00 C 370.73 429.21 368.31 421.66 370.00 410.00 C 371.69 398.34 366.75 394.43 355.00 396.00 C 343.25 397.57 336.45 395.56 325.00 396.00 C 313.55 396.44 318.73 409.56 318.00 419.00 C 317.27 428.44 318.33 439.26 318.00 449.00 C 317.67 458.74 318.15 469.14 318.00 479.00 C 317.85 488.86 318.07 499.11 318.00 509.00 C 317.93 518.89 318.04 529.15 318.00 539.00 C 317.96 548.85 318.03 558.20 318.00 568.00 Z"/>
</g>
<g fill="#ECF5F5" fill-opacity="1.00" stroke="None">
<path d="
M 676.00 499.00 
C 676.80 481.11 653.95 486.74 642.75 493.75 C 631.54 500.75 625.62 515.78 626.00 529.00 C 626.38 542.22 633.06 555.77 644.31 562.70 C 655.55 569.62 679.29 575.26 678.00 557.00
C 658.52 565.00 637.76 548.64 637.34 528.68 C 636.91 508.71 655.97 491.20 676.00 499.00 Z"/>
</g>
<g fill="#ECF5F5" fill-opacity="1.00" stroke="None">
<path d="
M 432.00 509.00 
C 428.84 494.12 413.57 486.06 398.68 489.68 C 383.78 493.30 378.58 511.24 387.75 523.25 C 396.92 535.26 414.48 529.99 421.07 543.93 C 427.67 557.86 395.09 564.52 395.00 547.00
C 390.33 547.00 385.67 547.00 381.00 547.00
C 384.03 560.04 399.36 569.81 412.93 567.93 C 426.50 566.04 437.88 551.09 430.77 537.23 C 423.66 523.37 408.51 527.71 397.75 517.25 C 387.00 506.78 413.05 489.65 418.00 509.00
C 422.67 509.00 427.33 509.00 432.00 509.00 Z"/>
</g>
<g fill="#ECF5F5" fill-opacity="1.00" stroke="None">
<path d="
M 507.00 504.00 
C 483.94 483.76 447.61 499.99 446.00 530.00 C 444.39 560.01 480.96 580.98 504.00 560.00
C 503.21 569.04 511.98 567.05 519.00 567.00
C 519.00 543.33 519.00 519.67 519.00 496.00
C 512.42 495.49 504.04 494.73 507.00 504.00
M 490.00 506.00 
C 520.10 512.67 507.75 565.98 477.00 557.00 C 446.25 548.02 456.71 498.62 490.00 506.00 Z"/>
</g>
<g fill="#ECF5F5" fill-opacity="1.00" stroke="None">
<path d="
M 589.00 501.00 
C 581.79 495.18 570.76 493.86 562.07 496.07 C 553.39 498.29 547.39 502.73 542.30 510.30 C 537.22 517.87 534.94 527.09 536.00 536.00 C 537.06 544.91 539.82 552.61 547.25 558.75 C 554.68 564.89 559.87 569.56 571.00 568.00 C 582.13 566.44 586.41 563.63 599.00 566.00 C 611.59 568.37 607.22 551.24 608.00 541.00 C 608.78 530.76 606.04 518.10 608.00 507.00 C 609.96 495.90 595.25 492.38 589.00 501.00
M 578.00 506.00 
C 608.71 512.36 596.36 565.47 565.33 556.67 C 534.30 547.87 546.36 499.45 578.00 506.00 Z"/>
</g>
<g fill="#445E73" fill-opacity="1.00" stroke="None">
<path d="
M 490.00 506.00 
C 456.71 498.62 446.25 548.02 477.00 557.00 C 507.75 565.98 520.10 512.67 490.00 506.00 Z"/>
</g>
<g fill="#445E73" fill-opacity="1.00" stroke="None">
<path d="
M 578.00 506.00 
C 546.36 499.45 534.30 547.87 565.33 556.67 C 596.36 565.47 608.71 512.36 578.00 506.00 Z"/>
</g>
<g fill="#ECF5F5" fill-opacity="1.00" stroke="None">
<path d="
M 676.00 588.00 
C 656.33 588.00 636.67 588.00 617.00 588.00
C 581.25 644.85 486.96 644.64 450.00 589.00
C 430.08 589.66 409.50 587.68 390.00 590.00
C 413.26 646.97 473.75 682.72 534.00 683.00 C 594.25 683.28 656.49 646.52 676.00 588.00 Z"/>
</g>
</svg>